<svg width="107" height="30" viewBox="0 0 107 30" fill="none" xmlns="http://www.w3.org/2000/svg">
<g clip-path="url(#clip0_453_2)">
<rect width="107" height="30" rx="4" fill="#324A5E"/>
<path d="M37.1534 19H34.799V11.7273H37.228C37.9406 11.7273 38.5526 11.8729 39.0639 12.1641C39.5753 12.4529 39.9671 12.8684 40.2393 13.4105C40.514 13.9503 40.6513 14.5978 40.6513 15.353C40.6513 16.1106 40.5128 16.7616 40.2358 17.3061C39.9612 17.8506 39.5634 18.2696 39.0426 18.5632C38.5218 18.8544 37.892 19 37.1534 19ZM35.8963 18.0412H37.093C37.647 18.0412 38.1075 17.937 38.4744 17.7287C38.8414 17.518 39.116 17.2138 39.2983 16.8161C39.4806 16.416 39.5717 15.9283 39.5717 15.353C39.5717 14.7824 39.4806 14.2983 39.2983 13.9006C39.1184 13.5028 38.8497 13.201 38.4922 12.995C38.1347 12.7891 37.6908 12.6861 37.1605 12.6861H35.8963V18.0412ZM44.2282 19.1101C43.7168 19.1101 43.2705 18.9929 42.8894 18.7585C42.5082 18.5241 42.2123 18.1963 42.0016 17.7749C41.7909 17.3535 41.6855 16.861 41.6855 16.2976C41.6855 15.7318 41.7909 15.237 42.0016 14.8132C42.2123 14.3894 42.5082 14.0604 42.8894 13.826C43.2705 13.5916 43.7168 13.4744 44.2282 13.4744C44.7395 13.4744 45.1858 13.5916 45.5669 13.826C45.9481 14.0604 46.244 14.3894 46.4547 14.8132C46.6654 15.237 46.7708 15.7318 46.7708 16.2976C46.7708 16.861 46.6654 17.3535 46.4547 17.7749C46.244 18.1963 45.9481 18.5241 45.5669 18.7585C45.1858 18.9929 44.7395 19.1101 44.2282 19.1101ZM44.2317 18.2188C44.5632 18.2188 44.8378 18.1312 45.0556 17.956C45.2734 17.7808 45.4344 17.5476 45.5385 17.2564C45.6451 16.9652 45.6983 16.6444 45.6983 16.294C45.6983 15.946 45.6451 15.6264 45.5385 15.3352C45.4344 15.0417 45.2734 14.8061 45.0556 14.6286C44.8378 14.451 44.5632 14.3622 44.2317 14.3622C43.8979 14.3622 43.6209 14.451 43.4007 14.6286C43.1829 14.8061 43.0208 15.0417 42.9142 15.3352C42.8101 15.6264 42.758 15.946 42.758 16.294C42.758 16.6444 42.8101 16.9652 42.9142 17.2564C43.0208 17.5476 43.1829 17.7808 43.4007 17.956C43.6209 18.1312 43.8979 18.2188 44.2317 18.2188ZM48.9725 19L47.3674 13.5455H48.4647L49.5336 17.5511H49.5868L50.6593 13.5455H51.7566L52.8219 17.5334H52.8752L53.937 13.5455H55.0343L53.4327 19H52.3496L51.2417 15.0618H51.16L50.052 19H48.9725ZM57.1037 15.7614V19H56.0419V13.5455H57.0611V14.4332H57.1286C57.254 14.1444 57.4505 13.9124 57.718 13.7372C57.9879 13.562 58.3277 13.4744 58.7372 13.4744C59.1089 13.4744 59.4344 13.5526 59.7138 13.7088C59.9931 13.8627 60.2098 14.0923 60.3636 14.3977C60.5175 14.7031 60.5945 15.0807 60.5945 15.5305V19H59.5327V15.6584C59.5327 15.263 59.4297 14.9541 59.2237 14.7315C59.0178 14.5066 58.7348 14.3942 58.375 14.3942C58.1288 14.3942 57.9098 14.4474 57.718 14.554C57.5286 14.6605 57.3783 14.8168 57.267 15.0227C57.1581 15.2263 57.1037 15.4725 57.1037 15.7614ZM63.0803 11.7273V19H62.0185V11.7273H63.0803ZM66.8063 19.1101C66.2949 19.1101 65.8487 18.9929 65.4675 18.7585C65.0864 18.5241 64.7904 18.1963 64.5797 17.7749C64.369 17.3535 64.2637 16.861 64.2637 16.2976C64.2637 15.7318 64.369 15.237 64.5797 14.8132C64.7904 14.3894 65.0864 14.0604 65.4675 13.826C65.8487 13.5916 66.2949 13.4744 66.8063 13.4744C67.3176 13.4744 67.7639 13.5916 68.1451 13.826C68.5262 14.0604 68.8221 14.3894 69.0328 14.8132C69.2435 15.237 69.3489 15.7318 69.3489 16.2976C69.3489 16.861 69.2435 17.3535 69.0328 17.7749C68.8221 18.1963 68.5262 18.5241 68.1451 18.7585C67.7639 18.9929 67.3176 19.1101 66.8063 19.1101ZM66.8098 18.2188C67.1413 18.2188 67.4159 18.1312 67.6337 17.956C67.8515 17.7808 68.0125 17.5476 68.1167 17.2564C68.2232 16.9652 68.2765 16.6444 68.2765 16.294C68.2765 15.946 68.2232 15.6264 68.1167 15.3352C68.0125 15.0417 67.8515 14.8061 67.6337 14.6286C67.4159 14.451 67.1413 14.3622 66.8098 14.3622C66.476 14.3622 66.199 14.451 65.9789 14.6286C65.7611 14.8061 65.5989 15.0417 65.4924 15.3352C65.3882 15.6264 65.3361 15.946 65.3361 16.294C65.3361 16.6444 65.3882 16.9652 65.4924 17.2564C65.5989 17.5476 65.7611 17.7808 65.9789 17.956C66.199 18.1312 66.476 18.2188 66.8098 18.2188ZM72.1214 19.1207C71.7758 19.1207 71.4633 19.0568 71.1839 18.929C70.9046 18.7988 70.6832 18.6106 70.5199 18.3643C70.3589 18.1181 70.2784 17.8163 70.2784 17.4588C70.2784 17.151 70.3376 16.8977 70.456 16.6989C70.5743 16.5 70.7341 16.3426 70.9354 16.2266C71.1366 16.1106 71.3615 16.023 71.6101 15.9638C71.8587 15.9046 72.112 15.8596 72.37 15.8288C72.6967 15.791 72.9619 15.7602 73.1655 15.7365C73.3691 15.7105 73.517 15.669 73.6094 15.6122C73.7017 15.5554 73.7479 15.4631 73.7479 15.3352V15.3104C73.7479 15.0002 73.6603 14.7599 73.4851 14.5895C73.3123 14.419 73.0542 14.3338 72.7109 14.3338C72.3535 14.3338 72.0717 14.4131 71.8658 14.5717C71.6622 14.728 71.5213 14.902 71.4432 15.0938L70.4453 14.8665C70.5637 14.535 70.7365 14.2675 70.9638 14.0639C71.1934 13.858 71.4574 13.7088 71.7557 13.6165C72.054 13.5218 72.3677 13.4744 72.6967 13.4744C72.9145 13.4744 73.1454 13.5005 73.3892 13.5526C73.6354 13.6023 73.8651 13.6946 74.0781 13.8295C74.2936 13.9645 74.4699 14.1574 74.6072 14.4084C74.7446 14.657 74.8132 14.9801 74.8132 15.3778V19H73.7763V18.2543H73.7337C73.665 18.3916 73.562 18.5265 73.4247 18.6591C73.2874 18.7917 73.111 18.9018 72.8956 18.9893C72.6802 19.0769 72.4221 19.1207 72.1214 19.1207ZM72.3523 18.2685C72.6458 18.2685 72.8968 18.2105 73.1051 18.0945C73.3158 17.9785 73.4756 17.8269 73.5845 17.6399C73.6958 17.4505 73.7514 17.2481 73.7514 17.0327V16.3295C73.7135 16.3674 73.6402 16.4029 73.5312 16.4361C73.4247 16.4669 73.3028 16.4941 73.1655 16.5178C73.0282 16.5391 72.8944 16.5592 72.7642 16.5781C72.634 16.5947 72.5251 16.6089 72.4375 16.6207C72.2315 16.6468 72.0433 16.6906 71.8729 16.7521C71.7048 16.8137 71.5698 16.9025 71.468 17.0185C71.3686 17.1321 71.3189 17.2836 71.3189 17.473C71.3189 17.7358 71.416 17.9347 71.6101 18.0696C71.8042 18.2022 72.0516 18.2685 72.3523 18.2685ZM78.2694 19.1065C77.829 19.1065 77.436 18.9941 77.0904 18.7692C76.7471 18.5419 76.4772 18.2187 76.2807 17.7997C76.0866 17.3783 75.9895 16.8729 75.9895 16.2834C75.9895 15.6939 76.0878 15.1896 76.2843 14.7706C76.4831 14.3516 76.7554 14.0308 77.101 13.8082C77.4467 13.5857 77.8385 13.4744 78.2765 13.4744C78.615 13.4744 78.8873 13.5312 79.0932 13.6449C79.3016 13.7562 79.4625 13.8864 79.5762 14.0355C79.6922 14.1847 79.7821 14.3161 79.8461 14.4297H79.91V11.7273H80.9718V19H79.9348V18.1513H79.8461C79.7821 18.2673 79.6898 18.3999 79.5691 18.549C79.4507 18.6982 79.2873 18.8284 79.079 18.9396C78.8707 19.0509 78.6008 19.1065 78.2694 19.1065ZM78.5037 18.201C78.8091 18.201 79.0672 18.1205 79.2779 17.9595C79.4909 17.7962 79.6519 17.5701 79.7608 17.2812C79.8721 16.9924 79.9277 16.6562 79.9277 16.2727C79.9277 15.8939 79.8733 15.5625 79.7644 15.2784C79.6555 14.9943 79.4957 14.773 79.285 14.6143C79.0743 14.4557 78.8139 14.3764 78.5037 14.3764C78.1841 14.3764 77.9178 14.4593 77.7047 14.625C77.4917 14.7907 77.3307 15.0168 77.2218 15.3033C77.1152 15.5897 77.062 15.9129 77.062 16.2727C77.062 16.6373 77.1164 16.9652 77.2253 17.2564C77.3342 17.5476 77.4952 17.7784 77.7083 17.9489C77.9237 18.117 78.1889 18.201 78.5037 18.201ZM85.0307 19V18.2685L88.8553 12.6719H84.9988V11.7273H90.1976V12.4588L86.373 18.0554H90.2296V19H85.0307ZM92.7029 11.7273V19H91.6056V11.7273H92.7029ZM94.301 19V11.7273H96.8933C97.4591 11.7273 97.9279 11.8303 98.2995 12.0362C98.6712 12.2422 98.9494 12.5239 99.1341 12.8814C99.3187 13.2365 99.411 13.6366 99.411 14.0817C99.411 14.5291 99.3175 14.9316 99.1305 15.2891C98.9458 15.6442 98.6665 15.9259 98.2924 16.1342C97.9208 16.3402 97.4532 16.4432 96.8897 16.4432H95.1071V15.5128H96.7903C97.1478 15.5128 97.4378 15.4512 97.6603 15.3281C97.8829 15.2027 98.0462 15.0322 98.1504 14.8168C98.2546 14.6013 98.3066 14.3563 98.3066 14.0817C98.3066 13.8071 98.2546 13.5632 98.1504 13.3501C98.0462 13.1371 97.8817 12.9702 97.6568 12.8494C97.4342 12.7287 97.1407 12.6683 96.7761 12.6683H95.3983V19H94.301Z" fill="#B5F1F4"/>
<path d="M23.3701 21.6418C25.9271 21.6418 28 19.5689 28 17.0118C28 14.4548 25.9272 12.3819 23.3701 12.3819C23.3345 12.3819 23.2995 12.3837 23.2641 12.3846C22.7659 9.8844 20.5599 8 17.9134 8C15.8746 8 14.0983 9.1188 13.1617 10.7752C12.9308 10.7453 12.6958 10.7284 12.4567 10.7284C9.4431 10.7284 7 13.1713 7 16.1851C7 19.1988 9.44297 21.6418 12.4567 21.6418H23.3701Z" fill="#B5F1F4"/>
<path d="M23.3699 12.3819C23.3343 12.3819 23.2993 12.3837 23.2639 12.3846C22.7657 9.8844 20.5597 8 17.9132 8C17.7617 8 17.6118 8.00692 17.4634 8.01903V21.6416H23.3698C25.9268 21.6416 27.9997 19.5687 27.9997 17.0116C27.9997 14.4546 25.9268 12.3819 23.3699 12.3819Z" fill="#84DBFF"/>
<path d="M19.1342 16.4554V11.1064H15.8654V16.4554H14.231L17.4997 19.7243L20.7686 16.4554H19.1342Z" fill="#FC6F58"/>
<path d="M20.7686 16.4554H19.1343V11.1064H17.4634V19.6878L17.4998 19.7243L20.7686 16.4554Z" fill="#F1543F"/>
</g>
<defs>
<clipPath id="clip0_453_2">
<rect width="107" height="30" fill="white"/>
</clipPath>
</defs>
</svg>
