<svg width="35" height="35" viewBox="0 0 35 35" fill="none" xmlns="http://www.w3.org/2000/svg">
<g clip-path="url(#clip0_453_2)">
<path d="M17.5 35C27.165 35 35 27.165 35 17.5C35 7.83502 27.165 0 17.5 0C7.83502 0 0 7.83502 0 17.5C0 27.165 7.83502 35 17.5 35Z" fill="#324A5E"/>
<path d="M34.3105 22.3775L27.6514 15.7183L27.3925 16.249L22.4286 11.2852L14.6523 17.5197L7.77246 22.0413L20.4777 34.7465C27.1104 33.6095 32.4676 28.7404 34.3105 22.3775Z" fill="#2B3B4E"/>
<path d="M23.8249 23.9063C26.58 23.9063 28.8134 21.6729 28.8134 18.9178C28.8134 16.1627 26.58 13.9292 23.8249 13.9292C23.7866 13.9292 23.7489 13.9312 23.7107 13.9322C23.174 11.2383 20.7971 9.20801 17.9456 9.20801C15.749 9.20801 13.8351 10.4135 12.8259 12.1981C12.5771 12.1659 12.324 12.1477 12.0663 12.1477C8.81933 12.1477 6.18701 14.7798 6.18701 18.027C6.18701 21.2741 8.81919 23.9063 12.0663 23.9063H23.8249Z" fill="#B5F1F4"/>
<path d="M23.8249 13.9292C23.7866 13.9292 23.7488 13.9312 23.7107 13.9322C23.1739 11.2383 20.7971 9.20801 17.9456 9.20801C17.7824 9.20801 17.6208 9.21546 17.4609 9.22852V23.9061H23.8248C26.5799 23.9061 28.8133 21.6727 28.8133 18.9176C28.8132 16.1626 26.5798 13.9292 23.8249 13.9292Z" fill="#84DBFF"/>
<path d="M19.261 18.3184V12.5552H15.739V18.3184H13.978L17.5 21.8404L21.022 18.3184H19.261Z" fill="#FC6F58"/>
<path d="M21.0222 18.3184H19.2612V12.5552H17.4609V21.8012L17.5002 21.8404L21.0222 18.3184Z" fill="#F1543F"/>
</g>
<defs>
<clipPath id="clip0_453_2">
<rect width="35" height="35" fill="white"/>
</clipPath>
</defs>
</svg>
