<svg width="16" height="10" viewBox="0 0 16 10" fill="none" xmlns="http://www.w3.org/2000/svg">
<path d="M15.4792 1.79173L8.47917 8.81257C8.39583 8.8959 8.30556 8.95507 8.20833 8.99007C8.11111 9.02507 8.00694 9.04229 7.89583 9.04174C7.78472 9.04174 7.68056 9.02424 7.58333 8.98924C7.48611 8.95424 7.39583 8.89535 7.3125 8.81257L0.291667 1.79173C0.0972221 1.59729 0 1.35423 0 1.06257C0 0.770902 0.104167 0.520902 0.3125 0.312569C0.520833 0.104236 0.763889 6.86646e-05 1.04167 6.86646e-05C1.31944 6.86646e-05 1.5625 0.104236 1.77083 0.312569L7.89583 6.43757L14.0208 0.312569C14.2153 0.118124 14.455 0.0209017 14.74 0.0209017C15.025 0.0209017 15.2714 0.125069 15.4792 0.333402C15.6875 0.541735 15.7917 0.78479 15.7917 1.06257C15.7917 1.34035 15.6875 1.5834 15.4792 1.79173Z" fill="#6B6B6B"/>
</svg>
