<svg width="27" height="16" viewBox="0 0 27 16" fill="none" xmlns="http://www.w3.org/2000/svg">
<path d="M25.6797 3.01409L14.0668 14.6615C13.9286 14.7998 13.7788 14.8979 13.6175 14.956C13.4562 15.0141 13.2834 15.0426 13.0991 15.0417C12.9147 15.0417 12.7419 15.0127 12.5806 14.9546C12.4193 14.8966 12.2696 14.7989 12.1313 14.6615L0.48387 3.01409C0.16129 2.69151 0 2.28829 0 1.80442C0 1.32055 0.172811 0.905802 0.518432 0.560181C0.864054 0.214559 1.26728 0.0417483 1.72811 0.0417483C2.18894 0.0417483 2.59216 0.214559 2.93778 0.560181L13.0991 10.7215L23.2603 0.560181C23.5829 0.237601 23.9806 0.0763099 24.4534 0.0763099C24.9262 0.0763099 25.335 0.249121 25.6797 0.594742C26.0253 0.940364 26.1981 1.34359 26.1981 1.80442C26.1981 2.26525 26.0253 2.66847 25.6797 3.01409Z" fill="black"/>
</svg>
