<svg width="35" height="34" viewBox="0 0 35 34" fill="none" xmlns="http://www.w3.org/2000/svg">
<path d="M22.6571 24.5V24.7H22.8571H25.7143C27.9753 24.7 29.8 26.5247 29.8 28.7857V30.0672L18.568 33.5772L8.62484 30.8216L8.37143 30.7513V31.0143V32.8714H0.2V17.5571H11.3496L20.1155 20.8301C21.6375 21.4009 22.6571 22.8691 22.6571 24.5ZM5.71429 30.4143H5.91429V30.2143V20.2143V20.0143H5.71429H2.85714H2.65714V20.2143V30.2143V30.4143H2.85714H5.71429ZM18.4757 30.9929L18.5321 31.0083L18.5878 30.991L27.0593 28.3624L27.2815 28.2935L27.18 28.0842C26.9201 27.5482 26.3528 27.1571 25.7143 27.1571H18.0714C17.3199 27.1571 16.5843 27.0458 15.8775 26.8103L15.8773 26.8102L12.667 25.7446L13.4412 23.41L16.651 24.4755C16.7248 24.5 16.8336 24.5186 16.9525 24.5342C17.0762 24.5505 17.2266 24.5653 17.3922 24.5788C17.7238 24.6059 18.1238 24.6283 18.5086 24.6462C18.8937 24.6641 19.2652 24.6776 19.5404 24.6865C19.678 24.691 19.7915 24.6943 19.8707 24.6966L19.9625 24.6991L19.9866 24.6997L19.9929 24.6999L19.9944 24.6999L19.9949 24.6999L19.995 24.6999L20 24.5L19.995 24.6999L20.2 24.7051V24.5C20.2 23.8882 19.82 23.3427 19.2571 23.1275L19.2556 23.1269L10.9413 20.0269L10.9075 20.0143H10.8714H8.57143H8.37143V20.2143V28.0714V28.224L8.51857 28.2643L18.4757 30.9929ZM14.4857 11.6429C14.4857 7.81046 17.5962 4.7 21.4286 4.7C25.261 4.7 28.3714 7.81046 28.3714 11.6429C28.3714 15.4753 25.261 18.5857 21.4286 18.5857C17.5962 18.5857 14.4857 15.4753 14.4857 11.6429ZM16.9429 11.6429C16.9429 14.1247 18.9467 16.1286 21.4286 16.1286C23.9105 16.1286 25.9143 14.1247 25.9143 11.6429C25.9143 9.16097 23.9105 7.15714 21.4286 7.15714C18.9467 7.15714 16.9429 9.16097 16.9429 11.6429Z" fill="#3A47B9" stroke="#F4F4F4" stroke-width="0.4"/>
<rect x="15.041" y="1.36914" width="17.9766" height="14.5843" transform="rotate(21.6445 15.041 1.36914)" fill="#F4F4F4"/>
<path d="M30.6875 3.75H18.8125C17.6044 3.75 16.625 4.72938 16.625 5.9375V14.0625C16.625 15.2706 17.6044 16.25 18.8125 16.25H30.6875C31.8956 16.25 32.875 15.2706 32.875 14.0625V5.9375C32.875 4.72938 31.8956 3.75 30.6875 3.75Z" stroke="#3A47B9" stroke-width="1.8" stroke-linecap="round" stroke-linejoin="round"/>
<path d="M16.625 7.5H32.875M19.75 11.7188H21.625V12.5H19.75V11.7188Z" stroke="#3A47B9" stroke-width="1.8" stroke-linejoin="round"/>
</svg>
