<svg width="30" height="20" viewBox="0 0 30 20" fill="none" xmlns="http://www.w3.org/2000/svg">
<path d="M14.6662 13.3453C15.8532 12.3475 16.7047 11.0088 17.1051 9.51066C17.5055 8.01256 17.4354 6.42755 16.9044 4.9706C16.3734 3.51365 15.4072 2.25527 14.1368 1.3661C12.8663 0.476925 11.3532 0 9.80247 0C8.25177 0 6.7386 0.476925 5.46816 1.3661C4.19772 2.25527 3.23149 3.51365 2.7005 4.9706C2.16952 6.42755 2.09947 8.01256 2.49987 9.51066C2.90026 11.0088 3.75172 12.3475 4.93877 13.3453C3.08516 14.1834 1.47881 15.4851 0.274684 17.1247C0.0522822 17.4278 -0.0406199 17.8068 0.0164153 18.1783C0.0734504 18.5499 0.275751 18.8836 0.578813 19.106C0.881874 19.3284 1.26087 19.4213 1.63243 19.3643C2.00399 19.3072 2.33767 19.1049 2.56008 18.8019C3.39361 17.6634 4.48378 16.7376 5.74211 16.0993C7.00045 15.4611 8.39152 15.1285 9.80247 15.1285C11.2134 15.1285 12.6045 15.4611 13.8628 16.0993C15.1212 16.7376 16.2113 17.6634 17.0449 18.8019C17.2673 19.1051 17.601 19.3075 17.9727 19.3647C18.3443 19.4218 18.7235 19.329 19.0267 19.1066C19.3299 18.8842 19.5324 18.5504 19.5895 18.1788C19.6467 17.8071 19.5538 17.4279 19.3314 17.1247C18.1266 15.4853 16.5199 14.1837 14.6662 13.3453ZM5.07814 7.56505C5.07814 6.63067 5.35522 5.71727 5.87433 4.94036C6.39345 4.16345 7.13129 3.55792 7.99455 3.20034C8.8578 2.84277 9.80771 2.74921 10.7241 2.9315C11.6406 3.11379 12.4824 3.56374 13.1431 4.22445C13.8038 4.88516 14.2537 5.72695 14.436 6.64338C14.6183 7.55981 14.5247 8.50971 14.1672 9.37297C13.8096 10.2362 13.2041 10.9741 12.4272 11.4932C11.6502 12.0123 10.7368 12.2894 9.80247 12.2894C8.5495 12.2894 7.34785 11.7916 6.46186 10.9057C5.57588 10.0197 5.07814 8.81802 5.07814 7.56505ZM29.4202 19.1007C29.2702 19.2109 29.0999 19.2905 28.9191 19.3349C28.7382 19.3794 28.5505 19.3877 28.3664 19.3595C28.1824 19.3313 28.0057 19.2672 27.8464 19.1707C27.6872 19.0742 27.5485 18.9472 27.4384 18.7971C26.6028 17.6609 25.5122 16.7366 24.2543 16.0987C22.9964 15.4607 21.6064 15.1269 20.196 15.124C19.8201 15.124 19.4596 14.9746 19.1938 14.7089C18.928 14.4431 18.7787 14.0826 18.7787 13.7067C18.7787 13.3308 18.928 12.9703 19.1938 12.7045C19.4596 12.4387 19.8201 12.2894 20.196 12.2894C20.8916 12.2886 21.5784 12.1341 22.2075 11.8372C22.8365 11.5402 23.3922 11.1079 23.8348 10.5713C24.2775 10.0347 24.5962 9.40701 24.7681 8.73299C24.9401 8.05897 24.9611 7.35529 24.8296 6.67221C24.6982 5.98913 24.4175 5.34351 24.0076 4.78147C23.5978 4.21942 23.0689 3.75482 22.4587 3.42085C21.8485 3.08688 21.172 2.89177 20.4777 2.84947C19.7834 2.80717 19.0883 2.91872 18.4421 3.17615C18.269 3.24703 18.0835 3.28294 17.8965 3.28182C17.7094 3.28069 17.5245 3.24255 17.3522 3.16959C17.18 3.09663 17.0239 2.9903 16.8929 2.85673C16.762 2.72315 16.6588 2.56498 16.5893 2.39132C16.5197 2.21767 16.4853 2.03197 16.4879 1.84494C16.4905 1.6579 16.53 1.47322 16.6043 1.30156C16.6786 1.1299 16.7862 0.974639 16.9208 0.84474C17.0554 0.71484 17.2144 0.612869 17.3885 0.544705C19.0566 -0.123144 20.908 -0.174962 22.6108 0.398544C24.3136 0.97205 25.7564 2.13337 26.6806 3.67428C27.6047 5.21518 27.9498 7.0349 27.6538 8.80714C27.3578 10.5794 26.4403 12.1882 25.0656 13.3453C26.9192 14.1834 28.5255 15.4851 29.7297 17.1247C29.9499 17.4281 30.0409 17.8063 29.9829 18.1766C29.9249 18.5469 29.7226 18.8792 29.4202 19.1007Z" fill="#3A47B9"/>
</svg>
