<svg width="29" height="29" viewBox="0 0 29 29" fill="none" xmlns="http://www.w3.org/2000/svg">
<path d="M14.5002 14.5001C15.1647 14.5001 15.7339 14.2632 16.2075 13.7896C16.6804 13.3167 16.9168 12.748 16.9168 12.0834C16.9168 11.4188 16.6804 10.8497 16.2075 10.376C15.7339 9.90318 15.1647 9.66675 14.5002 9.66675C13.8356 9.66675 13.2669 9.90318 12.794 10.376C12.3203 10.8497 12.0835 11.4188 12.0835 12.0834C12.0835 12.748 12.3203 13.3167 12.794 13.7896C13.2669 14.2632 13.8356 14.5001 14.5002 14.5001ZM14.5002 23.3813C16.9571 21.1258 18.7797 19.0764 19.9679 17.2333C21.1561 15.391 21.7502 13.7549 21.7502 12.3251C21.7502 10.1299 21.0501 8.33235 19.6501 6.93229C18.2508 5.53304 16.5342 4.83341 14.5002 4.83341C12.4661 4.83341 10.7491 5.53304 9.34904 6.93229C7.94979 8.33235 7.25016 10.1299 7.25016 12.3251C7.25016 13.7549 7.84426 15.391 9.03245 17.2333C10.2206 19.0764 12.0432 21.1258 14.5002 23.3813ZM14.5002 26.5834C11.2578 23.8244 8.8363 21.2615 7.23566 18.8948C5.63422 16.5289 4.8335 14.339 4.8335 12.3251C4.8335 9.30425 5.8054 6.89765 7.7492 5.10529C9.6922 3.31293 11.9425 2.41675 14.5002 2.41675C17.0578 2.41675 19.3081 3.31293 21.2511 5.10529C23.1949 6.89765 24.1668 9.30425 24.1668 12.3251C24.1668 14.339 23.3665 16.5289 21.7659 18.8948C20.1644 21.2615 17.7425 23.8244 14.5002 26.5834Z" fill="#2D2D2D"/>
</svg>
