<svg width="18" height="22" viewBox="0 0 18 22" fill="none" xmlns="http://www.w3.org/2000/svg">
<path d="M9 21.9375C10.2375 21.9375 11.25 20.925 11.25 19.6875H6.75C6.75 20.925 7.7625 21.9375 9 21.9375ZM15.75 15.1875V9.5625C15.75 6.10875 13.9163 3.2175 10.6875 2.4525V1.6875C10.6875 0.75375 9.93375 0 9 0C8.06625 0 7.3125 0.75375 7.3125 1.6875V2.4525C4.095 3.2175 2.25 6.0975 2.25 9.5625V15.1875L0 17.4375V18.5625H18V17.4375L15.75 15.1875ZM13.5 16.3125H4.5V9.5625C4.5 6.7725 6.19875 4.5 9 4.5C11.8013 4.5 13.5 6.7725 13.5 9.5625V16.3125Z" fill="#161616"/>
</svg>
