<svg width="30" height="30" viewBox="0 0 30 30" fill="none" xmlns="http://www.w3.org/2000/svg">
<path d="M26.059 18.5695L20.5383 16.0957L20.5231 16.0887C20.2365 15.9661 19.9238 15.9169 19.6134 15.9455C19.303 15.9742 19.0047 16.0798 18.7453 16.2527C18.7148 16.2729 18.6854 16.2948 18.6574 16.3184L15.8051 18.75C13.9981 17.8723 12.1324 16.0207 11.2547 14.2371L13.6899 11.3414C13.7133 11.3121 13.7356 11.2828 13.7567 11.2512C13.9259 10.9925 14.0286 10.6961 14.0556 10.3882C14.0826 10.0803 14.033 9.77046 13.9113 9.48633V9.47227L11.4305 3.94219C11.2696 3.57102 10.993 3.26182 10.642 3.06076C10.291 2.85969 9.88437 2.77754 9.48282 2.82657C7.8949 3.03552 6.43733 3.81536 5.38235 5.02043C4.32738 6.2255 3.74714 7.77339 3.75001 9.37501C3.75001 18.6797 11.3203 26.25 20.625 26.25C22.2266 26.2529 23.7745 25.6726 24.9796 24.6177C26.1847 23.5627 26.9645 22.1051 27.1734 20.5172C27.2226 20.1158 27.1406 19.7092 26.9397 19.3582C26.7389 19.0072 26.43 18.7306 26.059 18.5695ZM20.625 24.375C16.6481 24.3707 12.8353 22.7889 10.0232 19.9768C7.2111 17.1647 5.62935 13.3519 5.62501 9.37501C5.6206 8.23066 6.03288 7.12383 6.78486 6.26123C7.53683 5.39862 8.57708 4.83923 9.71134 4.68751C9.71088 4.69218 9.71088 4.69689 9.71134 4.70157L12.1723 10.2094L9.75001 13.1086C9.72542 13.1369 9.70309 13.1671 9.68321 13.1988C9.50686 13.4694 9.40341 13.781 9.38288 14.1034C9.36235 14.4257 9.42543 14.7479 9.56603 15.0387C10.6277 17.2102 12.8156 19.3816 15.0106 20.4422C15.3035 20.5815 15.6275 20.6424 15.951 20.619C16.2745 20.5955 16.5864 20.4886 16.8563 20.3086C16.8863 20.2883 16.9153 20.2664 16.943 20.243L19.7918 17.8125L25.2996 20.2793H25.3125C25.1626 21.4152 24.6041 22.4575 23.7413 23.2113C22.8786 23.9652 21.7707 24.3789 20.625 24.375Z" fill="#5A5A5A" stroke="#5A5A5A" stroke-width="0.5"/>
</svg>
