<svg width="32" height="32" viewBox="0 0 32 32" fill="none" xmlns="http://www.w3.org/2000/svg">
<path d="M28.9335 17.7999L27.6002 19.1333L24.8668 16.3999L26.2002 15.0666C26.3372 14.9322 26.5215 14.857 26.7135 14.857C26.9054 14.857 27.0897 14.9322 27.2268 15.0666L28.9335 16.7733C29.2135 17.0533 29.2135 17.5199 28.9335 17.7999ZM16.0002 25.2533L24.0802 17.1733L26.8135 19.9066L18.7468 27.9999H16.0002V25.2533ZM16.0002 18.6666C10.1068 18.6666 5.3335 21.0533 5.3335 23.9999V26.6666H13.3335V24.1466L18.6668 18.8133C17.7868 18.7066 16.8935 18.6666 16.0002 18.6666ZM16.0002 5.33325C14.5857 5.33325 13.2291 5.89515 12.2289 6.89535C11.2287 7.89554 10.6668 9.2521 10.6668 10.6666C10.6668 12.0811 11.2287 13.4376 12.2289 14.4378C13.2291 15.438 14.5857 15.9999 16.0002 15.9999C17.4146 15.9999 18.7712 15.438 19.7714 14.4378C20.7716 13.4376 21.3335 12.0811 21.3335 10.6666C21.3335 9.2521 20.7716 7.89554 19.7714 6.89535C18.7712 5.89515 17.4146 5.33325 16.0002 5.33325Z" fill="#2D2D2D"/>
</svg>
