<svg width="37" height="30" viewBox="0 0 37 30" fill="none" xmlns="http://www.w3.org/2000/svg">
<g clip-path="url(#clip0_556_160)">
<path d="M20 2.5C16.55 2.5 13.75 5.3 13.75 8.75C13.75 12.2 16.55 15 20 15C23.45 15 26.25 12.2 26.25 8.75C26.25 5.3 23.45 2.5 20 2.5ZM20 12.5C17.925 12.5 16.25 10.825 16.25 8.75C16.25 6.675 17.925 5 20 5C22.075 5 23.75 6.675 23.75 8.75C23.75 10.825 22.075 12.5 20 12.5ZM23.75 20H21.25C21.25 18.5 20.3125 17.15 18.9125 16.625L11.2125 13.75H1.25V27.5H8.75V25.7L17.5 28.125L27.5 25V23.75C27.5 21.675 25.825 20 23.75 20ZM6.25 25H3.75V16.25H6.25V25ZM17.4625 25.5125L8.75 23.125V16.25H10.7625L18.0375 18.9625C18.4625 19.125 18.75 19.5375 18.75 20C18.75 20 16.25 19.9375 15.875 19.8125L12.9 18.825L12.1125 21.2L15.0875 22.1875C15.725 22.4 16.3875 22.5 17.0625 22.5H23.75C24.2375 22.5 24.675 22.8 24.875 23.2125L17.4625 25.5125Z" fill="black"/>
<rect x="16.0754" y="-0.0878906" width="14" height="14" transform="rotate(21.6445 16.0754 -0.0878906)" fill="#F4F4F4"/>
<path d="M31.9375 1.75H20.0625C18.8544 1.75 17.875 2.72938 17.875 3.9375V12.0625C17.875 13.2706 18.8544 14.25 20.0625 14.25H31.9375C33.1456 14.25 34.125 13.2706 34.125 12.0625V3.9375C34.125 2.72938 33.1456 1.75 31.9375 1.75Z" stroke="black" stroke-width="2" stroke-linecap="round" stroke-linejoin="round"/>
<path d="M17.875 5.5H34.125M21 9.71875H22.875V10.5H21V9.71875Z" stroke="black" stroke-width="2" stroke-linejoin="round"/>
</g>
<defs>
<clipPath id="clip0_556_160">
<rect width="37" height="30" fill="white"/>
</clipPath>
</defs>
</svg>
