<svg width="20" height="20" viewBox="0 0 20 20" fill="none" xmlns="http://www.w3.org/2000/svg">
<path d="M19.4498 0.565091C19.3111 0.426036 19.1462 0.315715 18.9648 0.240442C18.7833 0.16517 18.5888 0.126425 18.3923 0.126425C18.1959 0.126425 18.0014 0.16517 17.8199 0.240442C17.6384 0.315715 17.4736 0.426036 17.3348 0.565091L9.99985 7.88509L2.66485 0.550091C2.52597 0.411218 2.36111 0.301058 2.17966 0.225901C1.99822 0.150743 1.80374 0.112061 1.60735 0.112061C1.41095 0.112061 1.21648 0.150743 1.03503 0.225901C0.853586 0.301058 0.68872 0.411218 0.549847 0.550091C0.410974 0.688964 0.300814 0.85383 0.225657 1.03528C0.150499 1.21672 0.111816 1.4112 0.111816 1.60759C0.111816 1.80399 0.150499 1.99846 0.225657 2.17991C0.300814 2.36135 0.410974 2.52622 0.549847 2.66509L7.88485 10.0001L0.549847 17.3351C0.410974 17.474 0.300814 17.6388 0.225657 17.8203C0.150499 18.0017 0.111816 18.1962 0.111816 18.3926C0.111816 18.589 0.150499 18.7835 0.225657 18.9649C0.300814 19.1464 0.410974 19.3112 0.549847 19.4501C0.68872 19.589 0.853586 19.6991 1.03503 19.7743C1.21648 19.8494 1.41095 19.8881 1.60735 19.8881C1.80374 19.8881 1.99822 19.8494 2.17966 19.7743C2.36111 19.6991 2.52597 19.589 2.66485 19.4501L9.99985 12.1151L17.3348 19.4501C17.4737 19.589 17.6386 19.6991 17.82 19.7743C18.0015 19.8494 18.1959 19.8881 18.3923 19.8881C18.5887 19.8881 18.7832 19.8494 18.9647 19.7743C19.1461 19.6991 19.311 19.589 19.4498 19.4501C19.5887 19.3112 19.6989 19.1464 19.774 18.9649C19.8492 18.7835 19.8879 18.589 19.8879 18.3926C19.8879 18.1962 19.8492 18.0017 19.774 17.8203C19.6989 17.6388 19.5887 17.474 19.4498 17.3351L12.1148 10.0001L19.4498 2.66509C20.0198 2.09509 20.0198 1.13509 19.4498 0.565091Z" fill="black"/>
</svg>
