<svg width="28" height="28" viewBox="0 0 28 28" fill="none" xmlns="http://www.w3.org/2000/svg">
<g clip-path="url(#clip0_199_2)">
<path d="M16.66 2.3335C17.1497 2.33362 17.627 2.48783 18.0242 2.77427C18.4214 3.06071 18.7184 3.46487 18.8732 3.9295L19.5067 5.8335H23.3333C23.6428 5.8335 23.9395 5.95641 24.1583 6.17521C24.3771 6.394 24.5 6.69074 24.5 7.00016C24.5 7.30958 24.3771 7.60633 24.1583 7.82512C23.9395 8.04391 23.6428 8.16683 23.3333 8.16683L23.3298 8.24966L22.3183 22.4165C22.2552 23.2992 21.86 24.1252 21.2124 24.7283C20.5647 25.3314 19.7126 25.6667 18.8277 25.6668H9.17233C8.28737 25.6667 7.43529 25.3314 6.78763 24.7283C6.13996 24.1252 5.74479 23.2992 5.68167 22.4165L4.67017 8.2485C4.66806 8.22132 4.66689 8.19408 4.66667 8.16683C4.35725 8.16683 4.0605 8.04391 3.84171 7.82512C3.62292 7.60633 3.5 7.30958 3.5 7.00016C3.5 6.69074 3.62292 6.394 3.84171 6.17521C4.0605 5.95641 4.35725 5.8335 4.66667 5.8335H8.49333L9.12683 3.9295C9.28165 3.46468 9.57884 3.06039 9.97628 2.77393C10.3737 2.48747 10.8512 2.33338 11.3412 2.3335H16.66ZM20.9965 8.16683H7.0035L8.00917 22.2497C8.03011 22.5439 8.16174 22.8193 8.37755 23.0204C8.59337 23.2215 8.87735 23.3334 9.17233 23.3335H18.8277C19.1227 23.3334 19.4066 23.2215 19.6224 23.0204C19.8383 22.8193 19.9699 22.5439 19.9908 22.2497L20.9965 8.16683ZM11.6667 11.6668C11.9524 11.6669 12.2282 11.7718 12.4418 11.9617C12.6553 12.1516 12.7917 12.4132 12.8252 12.697L12.8333 12.8335V18.6668C12.833 18.9642 12.7191 19.2502 12.515 19.4664C12.3109 19.6827 12.0319 19.8128 11.735 19.8302C11.4382 19.8476 11.1459 19.751 10.9179 19.5602C10.6898 19.3693 10.5433 19.0986 10.5082 18.8033L10.5 18.6668V12.8335C10.5 12.5241 10.6229 12.2273 10.8417 12.0085C11.0605 11.7897 11.3572 11.6668 11.6667 11.6668ZM16.3333 11.6668C16.6428 11.6668 16.9395 11.7897 17.1583 12.0085C17.3771 12.2273 17.5 12.5241 17.5 12.8335V18.6668C17.5 18.9762 17.3771 19.273 17.1583 19.4918C16.9395 19.7106 16.6428 19.8335 16.3333 19.8335C16.0239 19.8335 15.7272 19.7106 15.5084 19.4918C15.2896 19.273 15.1667 18.9762 15.1667 18.6668V12.8335C15.1667 12.5241 15.2896 12.2273 15.5084 12.0085C15.7272 11.7897 16.0239 11.6668 16.3333 11.6668ZM16.66 4.66683H11.34L10.9515 5.8335H17.0485L16.66 4.66683Z" fill="white"/>
</g>
<defs>
<clipPath id="clip0_199_2">
<rect width="28" height="28" fill="white"/>
</clipPath>
</defs>
</svg>
