<svg width="33" height="28" viewBox="0 0 33 28" fill="none" xmlns="http://www.w3.org/2000/svg">
<path d="M16.5 25.0909C15.9014 26.1883 15.9011 26.1881 15.9008 26.1879L15.8998 26.1874L15.897 26.1858L15.8876 26.1807L15.8546 26.1624C15.8263 26.1467 15.7855 26.1239 15.7331 26.0943C15.6284 26.0351 15.4772 25.9485 15.2861 25.8361C14.9041 25.6113 14.3619 25.283 13.7127 24.864C12.417 24.0277 10.6831 22.8223 8.94296 21.3512C7.20822 19.8845 5.43214 18.1243 4.0814 16.1718C2.73507 14.2258 1.75 11.9993 1.75 9.62727C1.75 6.54002 3.00581 4.49613 4.73014 3.26994C6.38625 2.09227 8.3543 1.75 9.75 1.75C11.6265 1.75 13.2608 2.50065 14.5545 3.44938C15.2985 3.99493 15.9511 4.62083 16.5 5.24739C17.0489 4.62083 17.7015 3.99493 18.4455 3.44938C19.7392 2.50065 21.3735 1.75 23.25 1.75C24.6457 1.75 26.6138 2.09227 28.2699 3.26994C29.9942 4.49613 31.25 6.54002 31.25 9.62727C31.25 11.9993 30.2649 14.2258 28.9186 16.1718C27.5679 18.1243 25.7918 19.8845 24.057 21.3512C22.3169 22.8223 20.583 24.0277 19.2873 24.864C18.6381 25.283 18.0959 25.6113 17.7139 25.8361C17.5228 25.9485 17.3716 26.0351 17.2669 26.0943C17.2145 26.1239 17.1737 26.1467 17.1454 26.1624L17.1124 26.1807L17.103 26.1858L17.1002 26.1874L17.0992 26.1879C17.0989 26.1881 17.0986 26.1883 16.5 25.0909ZM16.5 25.0909L15.9014 26.1883L16.5 26.5148L17.0986 26.1883L16.5 25.0909Z" fill="white" stroke="black" stroke-width="2.5"/>
</svg>
