<svg width="28" height="28" viewBox="0 0 28 28" fill="none" xmlns="http://www.w3.org/2000/svg">
<path d="M10.5411 14C10.5411 14.8201 10.8929 15.6065 11.5192 16.1864C12.1455 16.7663 12.995 17.092 13.8807 17.092C14.7664 17.092 15.6159 16.7663 16.2422 16.1864C16.8685 15.6065 17.2204 14.8201 17.2204 14C17.2204 13.1799 16.8685 12.3935 16.2422 11.8136C15.6159 11.2337 14.7664 10.908 13.8807 10.908C12.995 10.908 12.1455 11.2337 11.5192 11.8136C10.8929 12.3935 10.5411 13.1799 10.5411 14ZM26.8278 13.2877C24.001 7.77454 19.7281 5 14 5C8.26893 5 3.99896 7.77454 1.17219 13.2905C1.0588 13.5128 1 13.7556 1 14.0014C1 14.2472 1.0588 14.49 1.17219 14.7123C3.99896 20.2255 8.27191 23 14 23C19.7311 23 24.001 20.2255 26.8278 14.7095C27.0574 14.2623 27.0574 13.7433 26.8278 13.2877ZM13.8807 18.8589C10.9824 18.8589 8.63271 16.6834 8.63271 14C8.63271 11.3166 10.9824 9.1411 13.8807 9.1411C16.7791 9.1411 19.1287 11.3166 19.1287 14C19.1287 16.6834 16.7791 18.8589 13.8807 18.8589Z" fill="#5A5A5A"/>
</svg>
