<svg width="24" height="21" viewBox="0 0 24 21" fill="none" xmlns="http://www.w3.org/2000/svg">
<path d="M10.6325 18.5711L10.6309 18.5697C7.62126 16.0083 5.21497 13.9549 3.54827 12.0411C1.89097 10.1381 1.1 8.52174 1.1 6.85459C1.1 4.16395 3.3466 1.9667 6.38 1.9667C8.09096 1.9667 9.73314 2.71975 10.7882 3.87354L11.6 4.76122L12.4118 3.87354C13.4669 2.71975 15.109 1.9667 16.82 1.9667C19.8534 1.9667 22.1 4.16395 22.1 6.85459C22.1 8.52174 21.309 10.1381 19.6517 12.0411C17.985 13.9549 15.5787 16.0083 12.5691 18.5697L12.5675 18.5711L11.6 19.3977L10.6325 18.5711Z" stroke="#3A47B9" stroke-width="2.2"/>
</svg>
