<svg width="29" height="29" viewBox="0 0 29 29" fill="none" xmlns="http://www.w3.org/2000/svg">
<path d="M14.5002 20.5416C13.8592 20.5416 13.2445 20.287 12.7913 19.8338C12.3381 19.3805 12.0835 18.7659 12.0835 18.1249C12.0835 16.7837 13.1589 15.7083 14.5002 15.7083C15.1411 15.7083 15.7558 15.9629 16.209 16.4161C16.6622 16.8693 16.9168 17.484 16.9168 18.1249C16.9168 18.7659 16.6622 19.3805 16.209 19.8338C15.7558 20.287 15.1411 20.5416 14.5002 20.5416ZM21.7502 24.1666V12.0833H7.25016V24.1666H21.7502ZM21.7502 9.66659C22.3911 9.66659 23.0058 9.9212 23.459 10.3744C23.9122 10.8276 24.1668 11.4423 24.1668 12.0833V24.1666C24.1668 24.8075 23.9122 25.4222 23.459 25.8754C23.0058 26.3286 22.3911 26.5833 21.7502 26.5833H7.25016C6.60922 26.5833 5.99453 26.3286 5.54132 25.8754C5.08811 25.4222 4.8335 24.8075 4.8335 24.1666V12.0833C4.8335 10.742 5.90891 9.66659 7.25016 9.66659H8.4585V7.24992C8.4585 5.64757 9.09503 4.11085 10.2281 2.97782C11.3611 1.84478 12.8978 1.20825 14.5002 1.20825C15.2936 1.20825 16.0792 1.36452 16.8122 1.66815C17.5452 1.97177 18.2112 2.41679 18.7723 2.97782C19.3333 3.53884 19.7783 4.20486 20.0819 4.93787C20.3856 5.67088 20.5418 6.45652 20.5418 7.24992V9.66659H21.7502ZM14.5002 3.62492C13.5388 3.62492 12.6167 4.00684 11.9369 4.68666C11.2571 5.36648 10.8752 6.28851 10.8752 7.24992V9.66659H18.1252V7.24992C18.1252 6.28851 17.7432 5.36648 17.0634 4.68666C16.3836 4.00684 15.4616 3.62492 14.5002 3.62492Z" fill="#2D2D2D"/>
</svg>
