<svg width="26" height="26" viewBox="0 0 26 26" fill="none" xmlns="http://www.w3.org/2000/svg">
<path d="M12.9999 16.4665C14.9145 16.4665 16.4665 14.9145 16.4665 12.9999C16.4665 11.0853 14.9145 9.5332 12.9999 9.5332C11.0853 9.5332 9.5332 11.0853 9.5332 12.9999C9.5332 14.9145 11.0853 16.4665 12.9999 16.4665Z" fill="#4A4A4A"/>
<path d="M9.74984 2.1665L7.76734 4.33317H4.33317C3.1415 4.33317 2.1665 5.30817 2.1665 6.49984V19.4998C2.1665 20.6915 3.1415 21.6665 4.33317 21.6665H21.6665C22.8582 21.6665 23.8332 20.6915 23.8332 19.4998V6.49984C23.8332 5.30817 22.8582 4.33317 21.6665 4.33317H18.2323L16.2498 2.1665H9.74984ZM12.9998 18.4165C10.0098 18.4165 7.58317 15.9898 7.58317 12.9998C7.58317 10.0098 10.0098 7.58317 12.9998 7.58317C15.9898 7.58317 18.4165 10.0098 18.4165 12.9998C18.4165 15.9898 15.9898 18.4165 12.9998 18.4165Z" fill="#4A4A4A"/>
</svg>
