<svg width="28" height="28" viewBox="0 0 28 28" fill="none" xmlns="http://www.w3.org/2000/svg">
<path d="M13.8015 10.5L17.4998 14.1867V14C17.4998 13.0717 17.1311 12.1815 16.4747 11.5251C15.8183 10.8687 14.9281 10.5 13.9998 10.5H13.8015ZM8.78484 11.4333L10.5932 13.2417C10.5348 13.4867 10.4998 13.7317 10.4998 14C10.4998 14.9283 10.8686 15.8185 11.525 16.4749C12.1813 17.1313 13.0716 17.5 13.9998 17.5C14.2565 17.5 14.5132 17.465 14.7582 17.4067L16.5665 19.215C15.7848 19.6 14.9215 19.8333 13.9998 19.8333C12.4527 19.8333 10.969 19.2188 9.87505 18.1248C8.78109 17.0308 8.1665 15.5471 8.1665 14C8.1665 13.0783 8.39984 12.215 8.78484 11.4333ZM2.33317 4.98167L4.99317 7.64167L5.51817 8.16667C3.59317 9.68333 2.0765 11.6667 1.1665 14C3.18484 19.1217 8.1665 22.75 13.9998 22.75C15.8082 22.75 17.5348 22.4 19.1098 21.77L19.6115 22.26L23.0182 25.6667L24.4998 24.185L3.81484 3.5M13.9998 8.16667C15.5469 8.16667 17.0307 8.78125 18.1246 9.87521C19.2186 10.9692 19.8332 12.4529 19.8332 14C19.8332 14.7467 19.6815 15.47 19.4132 16.1233L22.8315 19.5417C24.5815 18.0833 25.9815 16.17 26.8332 14C24.8148 8.87833 19.8332 5.25 13.9998 5.25C12.3665 5.25 10.8032 5.54167 9.33317 6.06667L11.8648 8.575C12.5298 8.31833 13.2415 8.16667 13.9998 8.16667Z" fill="#5A5A5A"/>
</svg>
